Coordinates
version=1
nRows=20
nColumns=34
inDegrees=yes

Units are S.I. units (second, meters, Newtons, ...)
If the header above contains a line with 'inDegrees', this indicates whether rotational values are in degrees (yes) or radians (no).

endheader
time	pelvis_tilt	pelvis_list	pelvis_rotation	pelvis_tx	pelvis_ty	pelvis_tz	hip_flexion_r	hip_adduction_r	hip_rotation_r	knee_angle_r	ankle_angle_r	subtalar_angle_r	mtp_angle_r	hip_flexion_l	hip_adduction_l	hip_rotation_l	knee_angle_l	ankle_angle_l	subtalar_angle_l	mtp_angle_l	lumbar_extension	lumbar_bending	lumbar_rotation	arm_flex_r	arm_add_r	arm_rot_r	elbow_flex_r	pro_sup_r	arm_flex_l	arm_add_l	arm_rot_l	elbow_flex_l	pro_sup_l
      0.98333330	      0.27120430	     -1.09010158	     -1.57273592	      1.53135429	      0.86453411	     -0.09446398	     -3.23765374	     -2.59168283	     -3.81210135	      2.43020158	      4.29852159	    -12.75424567	      0.00000000	     -4.59432522	     -5.43111499	     -1.78489309	      0.75048307	      6.37456981	     -1.73553707	      0.00000000	     -6.45604705	      2.38565561	     -1.44282677	      8.06822339	    -10.94739160	     37.03827337	     86.12925302	     89.98011701	      6.94897880	     -7.73773522	     31.97808945	     65.90712189	     84.35510780
      1.00000000	      0.27381056	     -1.09492860	     -1.57021867	      1.53149378	      0.86495264	     -0.09435481	     -3.23202033	     -2.59089989	     -3.81151899	      2.42748450	      4.29861764	    -12.75398323	      0.00000000	     -4.59573448	     -5.42636869	     -1.78495294	      0.75095389	      6.37423310	     -1.73543269	      0.00000000	     -6.45658334	      2.38545733	     -1.44251255	      8.06814693	    -10.94773530	     37.03814318	     86.12903640	     89.97975406	      6.94897207	     -7.73745631	     31.97826731	     65.90693357	     84.35508291
      1.01666670	      0.27696842	     -1.09825183	     -1.56538358	      1.53156328	      0.86442829	     -0.09428408	     -3.21611829	     -2.57632183	     -3.80983267	      2.41835539	      4.29695435	    -12.75155027	      0.00000000	     -4.60490877	     -5.41074344	     -1.78620620	      0.75445639	      6.37047837	     -1.73458563	      0.00000000	     -6.46432755	      2.38359238	     -1.44220929	      8.06629634	    -10.95058634	     37.03730802	     86.12599382	     89.97779736	      6.94772403	     -7.73531222	     31.97980746	     65.90461953	     84.35498514
      1.03333330	      0.28204001	     -1.09963838	     -1.56493097	      1.53161638	      0.86331035	     -0.09425110	     -3.21296720	     -2.57393462	     -3.80970514	      2.41640791	      4.29628185	    -12.75090691	      0.00000000	     -4.60570065	     -5.40784242	     -1.78663470	      0.75495639	      6.36945400	     -1.73435466	      0.00000000	     -6.46665586	      2.38314533	     -1.44236562	      8.06569097	    -10.95122146	     37.03718861	     86.12511717	     89.97745933	      6.94743965	     -7.73493206	     31.98010669	     65.90397269	     84.35497030
      1.05000000	      0.28512618	     -1.09985548	     -1.56475628	      1.53168923	      0.86210714	     -0.09424492	     -3.21039956	     -2.57095541	     -3.80983388	      2.41470474	      4.29544908	    -12.75029937	      0.00000000	     -4.60770954	     -5.40570095	     -1.78738836	      0.75626702	      6.36827300	     -1.73427588	      0.00000000	     -6.46953877	      2.38261250	     -1.44267982	      8.06484604	    -10.95191056	     37.03713323	     86.12407070	     89.97711124	      6.94730941	     -7.73455959	     31.98038283	     65.90327089	     84.35495581
      1.06666670	      0.28413472	     -1.09991128	     -1.56554658	      1.53170006	      0.86093239	     -0.09420689	     -3.21095935	     -2.56903507	     -3.81037616	      2.41424510	      4.29456694	    -12.74989669	      0.00000000	     -4.60990199	     -5.40505989	     -1.78852699	      0.75777667	      6.36707304	     -1.73445497	      0.00000000	     -6.47284034	      2.38215651	     -1.44316134	      8.06361805	    -10.95269017	     37.03720050	     86.12285465	     89.97673106	      6.94741113	     -7.73414734	     31.98063901	     65.90259508	     84.35494261
      1.08333330	      0.31755861	     -1.16676804	     -1.62398332	      1.53171659	      0.86022993	     -0.09404622	     -3.29120171	     -2.48883078	     -3.89244007	      2.32386687	      4.13902991	    -12.71067297	      0.00000000	     -4.63197068	     -5.49436247	     -2.05504416	      0.82312328	      6.18872647	     -1.84598094	      0.00000000	     -6.65994212	      2.41233908	     -1.32721328	      7.93235760	    -10.98735664	     37.04929058	     85.96854516	     89.85855206	      7.05071230	     -7.67231485	     32.00718582	     65.84591651	     84.35221983
      1.10000000	      0.31790633	     -1.16494937	     -1.62550284	      1.53172520	      0.85992848	     -0.09411551	     -3.29313291	     -2.48873012	     -3.89253575	      2.32457554	      4.13905403	    -12.71075216	      0.00000000	     -4.63063287	     -5.49591572	     -2.05487034	      0.82209857	      6.18885610	     -1.84600349	      0.00000000	     -6.66024756	      2.41240109	     -1.32699329	      7.93257969	    -10.98737797	     37.04914552	     85.96846293	     89.85830791	      7.05097345	     -7.67230325	     32.00724910	     65.84581044	     84.35221857
      1.11666670	      0.30795507	     -1.16546226	     -1.63161935	      1.53190981	      0.86011948	     -0.09429263	     -3.30418632	     -2.49592629	     -3.89373525	      2.32843206	      4.14046524	    -12.71272443	      0.00000000	     -4.62665543	     -5.50313117	     -2.05444465	      0.81756212	      6.19093411	     -1.84722290	      0.00000000	     -6.66106913	      2.41375694	     -1.32545045	      7.93478268	    -10.98756111	     37.04802491	     85.96851205	     89.85665263	      7.05403939	     -7.67206659	     32.00744035	     65.84603406	     84.35221720
      1.13333330	      0.30463988	     -1.16259155	     -1.63279489	      1.53200355	      0.86069074	     -0.09446411	     -3.30533577	     -2.49589062	     -3.89401806	      2.32892970	      4.14094692	    -12.71332574	      0.00000000	     -4.62646215	     -5.50559451	     -2.05452287	      0.81692118	      6.19154321	     -1.84768766	      0.00000000	     -6.66108190	      2.41414059	     -1.32508565	      7.93518928	    -10.98760104	     37.04781140	     85.96856906	     89.85632362	      7.05469386	     -7.67211387	     32.00744601	     65.84615195	     84.35221661
      1.15000000	      0.30082533	     -1.16352069	     -1.63353529	      1.53215311	      0.86113125	     -0.09457234	     -3.30755948	     -2.49731719	     -3.89437503	      2.32994045	      4.14157301	    -12.71413636	      0.00000000	     -4.62557521	     -5.50578815	     -2.05476271	      0.81588642	      6.19231751	     -1.84831560	      0.00000000	     -6.66155907	      2.41496882	     -1.32472061	      7.93525448	    -10.98784329	     37.04764567	     85.96839520	     89.85591827	      7.05546406	     -7.67220236	     32.00745982	     65.84625942	     84.35221722
      1.16666670	      0.30259676	     -1.16563806	     -1.63406291	      1.53228369	      0.86032772	     -0.09455619	     -3.31008309	     -2.49830646	     -3.89464950	      2.33104269	      4.14196980	    -12.71465264	      0.00000000	     -4.62310246	     -5.50390757	     -2.05505990	      0.81406948	      6.19294683	     -1.84879103	      0.00000000	     -6.66263122	      2.41619143	     -1.32459781	      7.93469110	    -10.98832723	     37.04766042	     85.96785453	     89.85558742	      7.05609408	     -7.67221584	     32.00750679	     65.84631119	     84.35222272
      1.18333330	      0.27432849	     -1.14293799	     -1.59617927	      1.53227077	      0.85908644	     -0.09473414	     -3.31813736	     -2.53972756	     -3.91215494	      2.32177799	      4.19665597	    -12.76963719	      0.00000000	     -4.62112033	     -5.46189148	     -2.08824746	      0.72532135	      6.26906067	     -1.90753156	      0.00000000	     -6.67203122	      2.52061390	     -1.32264161	      7.86570915	    -11.02610835	     37.05984451	     85.93576462	     89.83182827	      7.10895462	     -7.66639869	     32.01385699	     65.87463501	     84.35345703
      1.20000000	      0.27399075	     -1.14295279	     -1.59846605	      1.53190755	      0.85777883	     -0.09479735	     -3.32287599	     -2.53941928	     -3.91258009	      2.32370297	      4.19710759	    -12.77018952	      0.00000000	     -4.62109088	     -5.46202772	     -2.08804052	      0.72444681	      6.26965891	     -1.90778780	      0.00000000	     -6.67171295	      2.52061833	     -1.32262351	      7.86472155	    -11.02647305	     37.06006232	     85.93542698	     89.83152348	      7.10909433	     -7.66640492	     32.01411833	     65.87489428	     84.35348589
      1.21666670	      0.28327599	     -1.14702288	     -1.60747102	      1.53158326	      0.85741093	     -0.09478830	     -3.32686582	     -2.54878047	     -3.91434698	      2.32596576	      4.20278493	    -12.77590895	      0.00000000	     -4.61076085	     -5.46792362	     -2.08731664	      0.71340537	      6.27692056	     -1.91188788	      0.00000000	     -6.66669975	      2.52322335	     -1.32319022	      7.86072503	    -11.02918731	     37.06091156	     85.93484422	     89.82974206	      7.11525868	     -7.66684771	     32.01440696	     65.87894233	     84.35362931
      1.23333330	      0.28543363	     -1.15251266	     -1.60748513	      1.53173399	      0.85762353	     -0.09447713	     -3.32601642	     -2.55230453	     -3.91452239	      2.32590852	      4.20387203	    -12.77694516	      0.00000000	     -4.60855880	     -5.46604495	     -2.08719724	      0.71170282	      6.27826560	     -1.91266484	      0.00000000	     -6.66601144	      2.52418108	     -1.32354254	      7.86030548	    -11.02991064	     37.06093091	     85.93481552	     89.82947179	      7.11691246	     -7.66686299	     32.01429297	     65.87979102	     84.35364552
      1.25000000	      0.23292900	     -1.15295286	     -1.63443824	      1.53205584	      0.85774994	     -0.09379703	     -3.22756346	     -2.53610619	     -3.87662397	      2.43395187	      4.44829511	    -12.97822816	      0.00000000	     -4.59863851	     -5.48292643	     -2.08737499	      0.63731200	      6.54194924	     -2.09277241	      0.00000000	     -6.54146256	      2.58372538	     -1.25320762	      7.76454169	    -11.10579370	     37.09907889	     85.95740316	     89.76633345	      7.32965992	     -7.78995363	     31.99940628	     66.02865784	     84.35723823
      1.26666670	      0.07270435	     -1.13687729	     -1.76096182	      1.53195459	      0.85833061	     -0.09343082	     -2.90505144	     -2.55159336	     -3.57633200	      2.67585626	      4.65076446	    -13.24322449	      0.00000000	     -4.26544056	     -5.47744230	     -2.03165702	      0.97163929	      6.64980275	     -2.36091841	      0.00000000	     -6.48696101	      2.55206717	     -1.08388963	      7.66371061	    -11.19192973	     37.11507641	     86.13571225	     89.55169207	      7.35361322	     -7.85571604	     32.21395458	     66.30665407	     84.37766499
      1.28333330	      0.07264474	     -1.13007665	     -1.76339185	      1.53233657	      0.85951633	     -0.09356965	     -2.90459942	     -2.54958142	     -3.57651217	      2.67664381	      4.65046223	    -13.24358944	      0.00000000	     -4.26216178	     -5.48193385	     -2.03131652	      0.97133074	      6.64950253	     -2.36109789	      0.00000000	     -6.48677302	      2.55179841	     -1.08361509	      7.66375627	    -11.19191763	     37.11496121	     86.13607905	     89.55140727	      7.35344792	     -7.85631707	     32.21403814	     66.30662501	     84.37766835
      1.30000000	      0.05020904	     -1.12331330	     -1.77430001	      1.53324792	      0.86081374	     -0.09385517	     -2.91538759	     -2.54596522	     -3.57763856	      2.68885302	      4.64670457	    -13.24412470	      0.00000000	     -4.26534870	     -5.48515448	     -2.03001679	      0.98977818	      6.64352963	     -2.36057516	      0.00000000	     -6.49096608	      2.55091963	     -1.08289840	      7.65897789	    -11.19295685	     37.11530230	     86.13607176	     89.54991786	      7.34779848	     -7.86145409	     32.21486793	     66.30334455	     84.37764460
